# xmcd CD database file
#
# Track frame offsets:
#	150
#	14990
#	40235
#	54002
#	61940
#	69315
#	77877
#	105350
#	109817
#	135805
#	154840
#	159895
#	197645
#	201387
#	217465
#	228155
#
# Disc length: 3297 seconds
#
# Revision: 0
# Processed by: cddbd v1.5.2PL0 Copyright (c) Steve Scherf et al.
# Submitted via: CDex 1.51
#
DISCID=d50cdf10
DTITLE=The Jack Brothers - The Jack Bros.
DYEAR=1994
DGENRE=Jazz
TTITLE0=Blessing in disguise
TTITLE1=Help me
TTITLE2=Shake your money maker
TTITLE3=Big Fish 1
TTITLE4=Kapten Voss
TTITLE5=Big Fish 2
TTITLE6=Knocking
TTITLE7=Vals
TTITLE8=St. James Infirmary
TTITLE9=Walkin' down
TTITLE10=Ali Coleman
TTITLE11=Cauliflower
TTITLE12=Statsministern
TTITLE13=Memphis Green
TTITLE14=Blott en dag
TTITLE15=I asked my love
EXTD=YEAR: 1994
EXTT0=
EXTT1=
EXTT2=
EXTT3=
EXTT4=
EXTT5=
EXTT6=
EXTT7=
EXTT8=
EXTT9=
EXTT10=
EXTT11=
EXTT12=
EXTT13=
EXTT14=
EXTT15=
PLAYORDER=
